<svg width="177" height="30" viewBox="0 0 177 30" fill="none" xmlns="http://www.w3.org/2000/svg">
<path fill-rule="evenodd" clip-rule="evenodd" d="M78.8688 5.8624C79.8672 5.8624 80.6736 5.5792 81.288 5.0128C81.9024 4.4464 82.2096 3.7312 82.2096 2.8672C82.2096 2.0416 81.9024 1.3648 81.288 0.8368C80.6736 0.3088 79.8672 0.0447998 78.8688 0.0447998C77.8704 0.0447998 77.064 0.3232 76.4496 0.88C75.8352 1.4368 75.528 2.128 75.528 2.9536C75.528 3.7792 75.8352 4.4704 76.4496 5.0272C77.064 5.584 77.8704 5.8624 78.8688 5.8624ZM15.5376 23.2V18.6784H5.9184V3.04H0.216003V23.2H15.5376ZM25.3008 23.4592C26.9904 23.4592 28.5072 23.1136 29.8512 22.4224C31.1952 21.7312 32.2416 20.7712 32.9904 19.5424C33.7392 18.3136 34.1136 16.9216 34.1136 15.3664C34.1136 13.8112 33.7392 12.424 32.9904 11.2048C32.2416 9.9856 31.1952 9.0352 29.8512 8.3536C28.5072 7.672 26.9904 7.3312 25.3008 7.3312C23.6112 7.3312 22.0992 7.672 20.7648 8.3536C19.4304 9.0352 18.384 9.9904 17.6256 11.2192C16.8672 12.448 16.488 13.8304 16.488 15.3664C16.488 16.9216 16.8672 18.3136 17.6256 19.5424C18.384 20.7712 19.4352 21.7312 20.7792 22.4224C22.1232 23.1136 23.6304 23.4592 25.3008 23.4592ZM22.9392 18.1168C23.5536 18.7792 24.3408 19.1104 25.3008 19.1104C26.2608 19.1104 27.048 18.7792 27.6624 18.1168C28.2768 17.4544 28.584 16.5376 28.584 15.3664C28.584 14.2144 28.2768 13.312 27.6624 12.6592C27.048 12.0064 26.2608 11.68 25.3008 11.68C24.3408 11.68 23.5536 12.0064 22.9392 12.6592C22.3248 13.312 22.0176 14.2144 22.0176 15.3664C22.0176 16.5376 22.3248 17.4544 22.9392 18.1168ZM44.28 29.0464C47.2368 29.0464 49.5024 28.3216 51.0768 26.872C52.6512 25.4224 53.4384 23.248 53.4384 20.3488V7.5904H48.2256V9.4912C47.1888 8.0512 45.5568 7.3312 43.3296 7.3312C41.9472 7.3312 40.6704 7.6432 39.4992 8.2672C38.328 8.8912 37.3968 9.7744 36.7056 10.9168C36.0144 12.0592 35.6688 13.3696 35.6688 14.848C35.6688 16.3456 36.0144 17.6656 36.7056 18.808C37.3968 19.9504 38.328 20.8336 39.4992 21.4576C40.6704 22.0816 41.9472 22.3936 43.3296 22.3936C45.3648 22.3936 46.9104 21.7792 47.9664 20.5504V21.0688C47.9664 22.3168 47.6304 23.2576 46.9584 23.8912C46.2864 24.5248 45.2304 24.8416 43.7904 24.8416C42.8496 24.8416 41.8944 24.6928 40.9248 24.3952C39.9552 24.0976 39.1536 23.6896 38.52 23.1712L36.5328 27.0016C37.4736 27.6736 38.616 28.1824 39.96 28.528C41.304 28.8736 42.744 29.0464 44.28 29.0464ZM42.1776 17.152C42.8304 17.7472 43.6464 18.0448 44.6256 18.0448C45.6048 18.0448 46.416 17.7472 47.0592 17.152C47.7024 16.5568 48.024 15.7888 48.024 14.848C48.024 13.9072 47.7072 13.144 47.0736 12.5584C46.44 11.9728 45.624 11.68 44.6256 11.68C43.6272 11.68 42.8064 11.9728 42.1632 12.5584C41.52 13.144 41.1984 13.9072 41.1984 14.848C41.1984 15.7888 41.5248 16.5568 42.1776 17.152ZM64.7856 23.4592C66.4752 23.4592 67.992 23.1136 69.336 22.4224C70.68 21.7312 71.7264 20.7712 72.4752 19.5424C73.224 18.3136 73.5984 16.9216 73.5984 15.3664C73.5984 13.8112 73.224 12.424 72.4752 11.2048C71.7264 9.9856 70.68 9.0352 69.336 8.3536C67.992 7.672 66.4752 7.3312 64.7856 7.3312C63.096 7.3312 61.584 7.672 60.2496 8.3536C58.9152 9.0352 57.8688 9.9904 57.1104 11.2192C56.352 12.448 55.9728 13.8304 55.9728 15.3664C55.9728 16.9216 56.352 18.3136 57.1104 19.5424C57.8688 20.7712 58.92 21.7312 60.264 22.4224C61.608 23.1136 63.1152 23.4592 64.7856 23.4592ZM62.424 18.1168C63.0384 18.7792 63.8256 19.1104 64.7856 19.1104C65.7456 19.1104 66.5328 18.7792 67.1472 18.1168C67.7616 17.4544 68.0688 16.5376 68.0688 15.3664C68.0688 14.2144 67.7616 13.312 67.1472 12.6592C66.5328 12.0064 65.7456 11.68 64.7856 11.68C63.8256 11.68 63.0384 12.0064 62.424 12.6592C61.8096 13.312 61.5024 14.2144 61.5024 15.3664C61.5024 16.5376 61.8096 17.4544 62.424 18.1168ZM81.6048 7.5904V23.2H76.1328V7.5904H81.6048ZM90.6192 28.7872V21.8176C91.6944 22.912 93.144 23.4592 94.968 23.4592C96.3888 23.4592 97.68 23.128 98.8416 22.4656C100.003 21.8032 100.925 20.8624 101.606 19.6432C102.288 18.424 102.629 17.008 102.629 15.3952C102.629 13.7824 102.288 12.3664 101.606 11.1472C100.925 9.928 100.003 8.9872 98.8416 8.3248C97.68 7.6624 96.3888 7.3312 94.968 7.3312C92.9136 7.3312 91.3776 7.936 90.36 9.1456V7.5904H85.1472V28.7872H90.6192ZM91.4544 18.1168C92.0688 18.7792 92.856 19.1104 93.816 19.1104C94.776 19.1104 95.5632 18.7792 96.1776 18.1168C96.792 17.4544 97.0992 16.5472 97.0992 15.3952C97.0992 14.2432 96.792 13.336 96.1776 12.6736C95.5632 12.0112 94.776 11.68 93.816 11.68C92.856 11.68 92.0688 12.0112 91.4544 12.6736C90.84 13.336 90.5328 14.2432 90.5328 15.3952C90.5328 16.5472 90.84 17.4544 91.4544 18.1168ZM110.837 23.4592C112.469 23.4592 113.866 23.2384 115.027 22.7968C116.189 22.3552 117.067 21.7456 117.662 20.968C118.258 20.1904 118.555 19.312 118.555 18.3328C118.555 17.1424 118.243 16.216 117.619 15.5536C116.995 14.8912 116.261 14.4352 115.416 14.1856C114.571 13.936 113.506 13.7152 112.219 13.5232C111.202 13.3696 110.472 13.2208 110.03 13.0768C109.589 12.9328 109.368 12.6784 109.368 12.3136C109.368 11.9872 109.57 11.7232 109.973 11.5216C110.376 11.32 111.01 11.2192 111.874 11.2192C113.486 11.2192 114.984 11.6032 116.366 12.3712L118.008 8.656C117.259 8.2336 116.328 7.9072 115.214 7.6768C114.101 7.4464 112.978 7.3312 111.845 7.3312C110.251 7.3312 108.883 7.5568 107.741 8.008C106.598 8.4592 105.73 9.0736 105.134 9.8512C104.539 10.6288 104.242 11.5168 104.242 12.5152C104.242 13.7248 104.558 14.6656 105.192 15.3376C105.826 16.0096 106.579 16.4704 107.453 16.72C108.326 16.9696 109.387 17.1712 110.635 17.3248C111.614 17.4592 112.33 17.5984 112.781 17.7424C113.232 17.8864 113.458 18.1312 113.458 18.4768C113.458 18.8224 113.27 19.0864 112.896 19.2688C112.522 19.4512 111.893 19.5424 111.01 19.5424C110.05 19.5424 109.08 19.4128 108.101 19.1536C107.122 18.8944 106.277 18.544 105.566 18.1024L103.925 21.8464C104.693 22.3264 105.71 22.7152 106.978 23.0128C108.245 23.3104 109.531 23.4592 110.837 23.4592ZM130.046 22.9696C129.24 23.296 128.386 23.4592 127.483 23.4592C125.467 23.4592 123.859 22.864 122.659 21.6736C121.459 20.4832 120.859 18.6976 120.859 16.3168V7.5904H126.331V15.424C126.331 16.5952 126.552 17.4496 126.994 17.9872C127.435 18.5248 128.078 18.7936 128.923 18.7936C129.787 18.7936 130.493 18.4912 131.04 17.8864C131.587 17.2816 131.861 16.3552 131.861 15.1072V7.5904H137.333V23.2H132.12V21.5296C131.544 22.1632 130.853 22.6432 130.046 22.9696ZM146.318 23.2V15.4528C146.318 14.2816 146.568 13.408 147.067 12.832C147.566 12.256 148.238 11.968 149.083 11.968C150.658 11.968 151.445 13.0336 151.445 15.1648V23.2H156.917V15.4528C156.917 14.2816 157.166 13.408 157.666 12.832C158.165 12.256 158.827 11.968 159.653 11.968C160.402 11.968 160.982 12.2272 161.395 12.7456C161.808 13.264 162.014 14.0704 162.014 15.1648V23.2H167.486V14.272C167.486 11.9488 166.915 10.2112 165.773 9.0592C164.63 7.9072 163.099 7.3312 161.179 7.3312C160.066 7.3312 159.038 7.5424 158.098 7.9648C157.157 8.3872 156.379 8.992 155.765 9.7792C155.227 8.9536 154.526 8.3392 153.662 7.936C152.798 7.5328 151.819 7.3312 150.725 7.3312C149.784 7.3312 148.915 7.4896 148.118 7.8064C147.322 8.1232 146.635 8.5984 146.059 9.232V7.5904H140.846V23.2H146.318ZM175.594 22.5376C174.97 23.152 174.187 23.4592 173.246 23.4592C172.325 23.4592 171.547 23.152 170.914 22.5376C170.28 21.9232 169.963 21.1456 169.963 20.2048C169.963 19.2448 170.275 18.4672 170.899 17.872C171.523 17.2768 172.306 16.9792 173.246 16.9792C174.206 16.9792 174.994 17.2768 175.608 17.872C176.222 18.4672 176.53 19.2448 176.53 20.2048C176.53 21.1456 176.218 21.9232 175.594 22.5376Z" fill="#D8D8D8"/>
</svg>
