<svg width="140" height="28" viewBox="0 0 140 28" fill="none" xmlns="http://www.w3.org/2000/svg">
<path fill-rule="evenodd" clip-rule="evenodd" d="M67.2184 5.96079C66.8872 6.09999 66.5344 6.16959 66.16 6.16959C65.7952 6.16959 65.4544 6.09999 65.1376 5.96079C64.8208 5.82159 64.54 5.63439 64.2952 5.39919C64.0504 5.16399 63.8584 4.89039 63.7192 4.57839C63.58 4.26639 63.5104 3.93279 63.5104 3.57759C63.5104 3.21279 63.58 2.87199 63.7192 2.55519C63.8584 2.23839 64.0504 1.95999 64.2952 1.71999C64.54 1.47999 64.8208 1.29279 65.1376 1.15839C65.4544 1.02399 65.7952 0.956787 66.16 0.956787C66.5344 0.956787 66.8872 1.02399 67.2184 1.15839C67.5496 1.29279 67.84 1.47999 68.0896 1.71999C68.3392 1.95999 68.536 2.23839 68.68 2.55519C68.824 2.87199 68.896 3.21279 68.896 3.57759C68.896 3.93279 68.824 4.26639 68.68 4.57839C68.536 4.89039 68.3392 5.16399 68.0896 5.39919C67.84 5.63439 67.5496 5.82159 67.2184 5.96079ZM13.5712 22.6V18.712H5.79521V1.61919H0.928009V22.6H13.5712ZM21.952 22.8304C23.0848 22.8304 24.1168 22.6504 25.048 22.2904C25.9792 21.9304 26.7784 21.4168 27.4456 20.7496C28.1128 20.0824 28.6312 19.2712 29.0008 18.316C29.3704 17.3608 29.5552 16.288 29.5552 15.0976C29.5552 13.9168 29.3704 12.8536 29.0008 11.908C28.6312 10.9624 28.1128 10.1584 27.4456 9.49599C26.7784 8.83359 25.9792 8.32479 25.048 7.96959C24.1168 7.61439 23.0848 7.43679 21.952 7.43679C20.8096 7.43679 19.7704 7.61439 18.8344 7.96959C17.8984 8.32479 17.092 8.83359 16.4152 9.49599C15.7384 10.1584 15.2152 10.9624 14.8456 11.908C14.476 12.8536 14.2912 13.9168 14.2912 15.0976C14.2912 16.288 14.476 17.3608 14.8456 18.316C15.2152 19.2712 15.7384 20.0824 16.4152 20.7496C17.092 21.4168 17.8984 21.9304 18.8344 22.2904C19.7704 22.6504 20.8096 22.8304 21.952 22.8304ZM19.6336 18.4312C20.1232 19.156 20.896 19.5184 21.952 19.5184C22.9792 19.5184 23.7352 19.156 24.22 18.4312C24.7048 17.7064 24.9472 16.6048 24.9472 15.1264C24.9472 13.648 24.7048 12.5488 24.22 11.8288C23.7352 11.1088 22.9792 10.7488 21.952 10.7488C20.896 10.7488 20.1232 11.1088 19.6336 11.8288C19.144 12.5488 18.8992 13.648 18.8992 15.1264C18.8992 16.6048 19.144 17.7064 19.6336 18.4312ZM37.2736 27.7408C38.464 27.7408 39.52 27.5896 40.4416 27.2872C41.3632 26.9848 42.1408 26.584 42.7744 26.0848C43.408 25.5856 43.888 25.0144 44.2144 24.3712C44.5408 23.728 44.704 23.0704 44.704 22.3984C44.704 21.6784 44.572 21.0856 44.308 20.62C44.044 20.1544 43.696 19.7824 43.264 19.504C42.832 19.2256 42.3376 19.024 41.7808 18.8992C41.224 18.7744 40.6576 18.6856 40.0816 18.6328C39.5056 18.58 38.9392 18.5464 38.3824 18.532C37.8256 18.5176 37.3312 18.4888 36.8992 18.4456C36.4672 18.4024 36.1192 18.3256 35.8552 18.2152C35.5912 18.1048 35.4592 17.9248 35.4592 17.6752C35.4592 17.4256 35.6224 17.2048 35.9488 17.0128C36.3616 17.0704 36.8032 17.0992 37.2736 17.0992C38.1184 17.0992 38.9104 16.9864 39.6496 16.7608C40.3888 16.5352 41.0296 16.2136 41.572 15.796C42.1144 15.3784 42.5416 14.872 42.8536 14.2768C43.1656 13.6816 43.3216 13.0096 43.3216 12.2608C43.3216 11.8 43.2544 11.3536 43.12 10.9216L44.2144 10.6768C44.5504 10.6 44.788 10.4896 44.9272 10.3456C45.0664 10.2016 45.136 10.0048 45.136 9.75519V8.12799H40.6288C40.1488 7.89759 39.628 7.71999 39.0664 7.59519C38.5048 7.47039 37.9072 7.40799 37.2736 7.40799C36.4 7.40799 35.5888 7.52079 34.84 7.74639C34.0912 7.97199 33.4408 8.29359 32.8888 8.71119C32.3368 9.12879 31.9024 9.63759 31.5856 10.2376C31.2688 10.8376 31.1104 11.512 31.1104 12.2608C31.1104 13.1632 31.3336 13.9552 31.78 14.6368C32.2264 15.3184 32.8384 15.8656 33.616 16.2784C33.2704 16.4416 32.9728 16.6288 32.7232 16.84C32.4736 17.0512 32.2672 17.272 32.104 17.5024C31.9408 17.7328 31.8208 17.9704 31.744 18.2152C31.6672 18.46 31.6288 18.6928 31.6288 18.9136C31.6288 19.4416 31.7296 19.8784 31.9312 20.224C32.1328 20.5696 32.4016 20.8528 32.7376 21.0736C32.0368 21.3328 31.4848 21.6904 31.0816 22.1464C30.6784 22.6024 30.4768 23.1616 30.4768 23.824C30.4768 24.3328 30.6112 24.8224 30.88 25.2928C31.1488 25.7632 31.564 26.1784 32.1256 26.5384C32.6872 26.8984 33.3928 27.1888 34.2424 27.4096C35.092 27.6304 36.1024 27.7408 37.2736 27.7408ZM36.3304 14.1976C36.5944 14.2984 36.9088 14.3488 37.2736 14.3488C38.0128 14.3488 38.548 14.164 38.8792 13.7944C39.2104 13.4248 39.376 12.9472 39.376 12.3616C39.376 11.7568 39.2104 11.2816 38.8792 10.936C38.548 10.5904 38.0128 10.4176 37.2736 10.4176C36.5344 10.4176 35.9992 10.5904 35.668 10.936C35.3368 11.2816 35.1712 11.7568 35.1712 12.3616C35.1712 12.6496 35.212 12.9136 35.2936 13.1536C35.3752 13.3936 35.5024 13.6024 35.6752 13.78C35.848 13.9576 36.0664 14.0968 36.3304 14.1976ZM37.36 24.6736C36.7648 24.6736 36.2728 24.6376 35.884 24.5656C35.4952 24.4936 35.1856 24.3952 34.9552 24.2704C34.7248 24.1456 34.564 23.9968 34.4728 23.824C34.3816 23.6512 34.336 23.4592 34.336 23.248C34.336 22.9504 34.4248 22.684 34.6024 22.4488C34.78 22.2136 35.008 22 35.2864 21.808C35.6992 21.856 36.1168 21.8872 36.5392 21.9016C36.9616 21.916 37.3696 21.9328 37.7632 21.952C38.1568 21.9712 38.524 22 38.8648 22.0384C39.2056 22.0768 39.5032 22.1392 39.7576 22.2256C40.012 22.312 40.2136 22.4272 40.3624 22.5712C40.5112 22.7152 40.5856 22.9072 40.5856 23.1472C40.5856 23.368 40.5376 23.572 40.4416 23.7592C40.3456 23.9464 40.1752 24.1072 39.9304 24.2416C39.6856 24.376 39.3568 24.4816 38.944 24.5584C38.5312 24.6352 38.0032 24.6736 37.36 24.6736ZM56.8144 22.2904C55.8832 22.6504 54.8512 22.8304 53.7184 22.8304C52.576 22.8304 51.5368 22.6504 50.6008 22.2904C49.6648 21.9304 48.8584 21.4168 48.1816 20.7496C47.5048 20.0824 46.9816 19.2712 46.612 18.316C46.2424 17.3608 46.0576 16.288 46.0576 15.0976C46.0576 13.9168 46.2424 12.8536 46.612 11.908C46.9816 10.9624 47.5048 10.1584 48.1816 9.49599C48.8584 8.83359 49.6648 8.32479 50.6008 7.96959C51.5368 7.61439 52.576 7.43679 53.7184 7.43679C54.8512 7.43679 55.8832 7.61439 56.8144 7.96959C57.7456 8.32479 58.5448 8.83359 59.212 9.49599C59.8792 10.1584 60.3976 10.9624 60.7672 11.908C61.1368 12.8536 61.3216 13.9168 61.3216 15.0976C61.3216 16.288 61.1368 17.3608 60.7672 18.316C60.3976 19.2712 59.8792 20.0824 59.212 20.7496C58.5448 21.4168 57.7456 21.9304 56.8144 22.2904ZM53.7184 19.5184C52.6624 19.5184 51.8896 19.156 51.4 18.4312C50.9104 17.7064 50.6656 16.6048 50.6656 15.1264C50.6656 13.648 50.9104 12.5488 51.4 11.8288C51.8896 11.1088 52.6624 10.7488 53.7184 10.7488C54.7456 10.7488 55.5016 11.1088 55.9864 11.8288C56.4712 12.5488 56.7136 13.648 56.7136 15.1264C56.7136 16.6048 56.4712 17.7064 55.9864 18.4312C55.5016 19.156 54.7456 19.5184 53.7184 19.5184ZM68.3776 22.6V7.66719H63.9136V22.6H68.3776ZM76.4416 21.6064V27.3376H71.9776V7.66719H74.7424C75.0208 7.66719 75.2536 7.72959 75.4408 7.85439C75.628 7.97919 75.76 8.16639 75.8368 8.41599L76.168 9.51039C76.456 9.19359 76.7656 8.90559 77.0968 8.64639C77.428 8.38719 77.7832 8.16399 78.1624 7.97679C78.5416 7.78959 78.9496 7.64319 79.3864 7.53759C79.8232 7.43199 80.3008 7.37919 80.8192 7.37919C81.5968 7.37919 82.3168 7.55199 82.9792 7.89759C83.6416 8.24319 84.2128 8.74239 84.6928 9.39519C85.1728 10.048 85.5496 10.8472 85.8232 11.7928C86.0968 12.7384 86.2336 13.8112 86.2336 15.0112C86.2336 16.1344 86.0776 17.1712 85.7656 18.1216C85.4536 19.072 85.0168 19.8976 84.4552 20.5984C83.8936 21.2992 83.2216 21.8464 82.4392 22.24C81.6568 22.6336 80.7904 22.8304 79.84 22.8304C79.0624 22.8304 78.4096 22.72 77.8816 22.4992C77.3536 22.2784 76.8736 21.9808 76.4416 21.6064ZM78.7744 19.5472C78.3424 19.5472 77.9296 19.4728 77.536 19.324C77.1424 19.1752 76.7776 18.9136 76.4416 18.5392V12.2032C76.6336 11.9728 76.8256 11.7688 77.0176 11.5912C77.2096 11.4136 77.4184 11.2672 77.644 11.152C77.8696 11.0368 78.1144 10.948 78.3784 10.8856C78.6424 10.8232 78.9376 10.792 79.264 10.792C79.6192 10.792 79.9408 10.864 80.2288 11.008C80.5168 11.152 80.764 11.3896 80.9704 11.7208C81.1768 12.052 81.3376 12.4864 81.4528 13.024C81.568 13.5616 81.6256 14.224 81.6256 15.0112C81.6256 15.8368 81.5536 16.5376 81.4096 17.1136C81.2656 17.6896 81.0664 18.1576 80.812 18.5176C80.5576 18.8776 80.2576 19.1392 79.912 19.3024C79.5664 19.4656 79.1872 19.5472 78.7744 19.5472ZM95.2696 22.456C94.4872 22.7056 93.5872 22.8304 92.5696 22.8304C92.0608 22.8304 91.552 22.7824 91.0432 22.6864C90.5344 22.5904 90.0424 22.4608 89.5672 22.2976C89.092 22.1344 88.6528 21.94 88.2496 21.7144C87.8464 21.4888 87.5008 21.2464 87.2128 20.9872L88.2496 19.3456C88.3744 19.1536 88.5232 19.0024 88.696 18.892C88.8688 18.7816 89.0944 18.7264 89.3728 18.7264C89.632 18.7264 89.8648 18.784 90.0712 18.8992C90.2776 19.0144 90.5008 19.1392 90.7408 19.2736C90.9808 19.408 91.2616 19.5328 91.5832 19.648C91.9048 19.7632 92.3104 19.8208 92.8 19.8208C93.1456 19.8208 93.4384 19.7848 93.6784 19.7128C93.9184 19.6408 94.1104 19.5424 94.2544 19.4176C94.3984 19.2928 94.504 19.1536 94.5712 19C94.6384 18.8464 94.672 18.688 94.672 18.5248C94.672 18.2272 94.5712 17.9824 94.3696 17.7904C94.168 17.5984 93.904 17.4328 93.5776 17.2936C93.2512 17.1544 92.8792 17.0248 92.4616 16.9048C92.044 16.7848 91.6192 16.648 91.1872 16.4944C90.7552 16.3408 90.3304 16.156 89.9128 15.94C89.4952 15.724 89.1232 15.4504 88.7968 15.1192C88.4704 14.788 88.2064 14.3824 88.0048 13.9024C87.8032 13.4224 87.7024 12.8416 87.7024 12.16C87.7024 11.5264 87.8248 10.924 88.0696 10.3528C88.3144 9.78159 88.6816 9.27999 89.1712 8.84799C89.6608 8.41599 90.2752 8.07279 91.0144 7.81839C91.7536 7.56399 92.6176 7.43679 93.6064 7.43679C94.144 7.43679 94.6648 7.48479 95.1688 7.58079C95.6728 7.67679 96.1456 7.81119 96.5872 7.98399C97.0288 8.15679 97.432 8.36079 97.7968 8.59599C98.1616 8.83119 98.4832 9.08799 98.7616 9.36639L97.7536 10.936C97.6384 11.1184 97.516 11.248 97.3864 11.3248C97.2568 11.4016 97.0912 11.44 96.8896 11.44C96.6784 11.44 96.4672 11.3944 96.256 11.3032L95.572 11.008C95.3272 10.9024 95.0512 10.804 94.744 10.7128C94.4368 10.6216 94.0864 10.576 93.6928 10.576C93.1264 10.576 92.692 10.684 92.3896 10.9C92.0872 11.116 91.936 11.416 91.936 11.8C91.936 12.0784 92.0344 12.3088 92.2312 12.4912C92.428 12.6736 92.6896 12.8344 93.016 12.9736C93.3424 13.1128 93.712 13.2448 94.1248 13.3696C94.5376 13.4944 94.96 13.6336 95.392 13.7872C95.824 13.9408 96.2464 14.1208 96.6592 14.3272C97.072 14.5336 97.4416 14.788 97.768 15.0904C98.0944 15.3928 98.356 15.76 98.5528 16.192C98.7496 16.624 98.848 17.1424 98.848 17.7472C98.848 18.4864 98.7136 19.168 98.4448 19.792C98.176 20.416 97.7752 20.9536 97.2424 21.4048C96.7096 21.856 96.052 22.2064 95.2696 22.456ZM106.077 22.8304C106.557 22.8304 106.998 22.7848 107.402 22.6936C107.805 22.6024 108.182 22.4776 108.532 22.3192C108.882 22.1608 109.211 21.9688 109.518 21.7432C109.826 21.5176 110.123 21.2656 110.411 20.9872L110.685 21.8512C110.858 22.3504 111.222 22.6 111.779 22.6H114.544V7.66719H110.08V18.3088C109.677 18.6736 109.262 18.9568 108.834 19.1584C108.407 19.36 107.949 19.4608 107.459 19.4608C106.806 19.4608 106.312 19.2592 105.976 18.856C105.64 18.4528 105.472 17.8816 105.472 17.1424V7.66719H101.008V17.1424C101.008 17.968 101.118 18.7264 101.339 19.4176C101.56 20.1088 101.886 20.7088 102.318 21.2176C102.75 21.7264 103.281 22.1224 103.91 22.4056C104.538 22.6888 105.261 22.8304 106.077 22.8304ZM122.464 11.8V22.6H118V7.66719H120.765C121.043 7.66719 121.276 7.72959 121.463 7.85439C121.65 7.97919 121.782 8.16639 121.859 8.41599L122.104 9.22239C122.354 8.96319 122.613 8.72559 122.882 8.50959C123.15 8.29359 123.441 8.10639 123.753 7.94799C124.065 7.78959 124.401 7.66479 124.761 7.57359C125.121 7.48239 125.517 7.43679 125.949 7.43679C126.851 7.43679 127.598 7.66959 128.188 8.13519C128.778 8.60079 129.227 9.22239 129.534 9.99999C129.784 9.53919 130.089 9.14559 130.449 8.81919C130.809 8.49279 131.198 8.22879 131.615 8.02719C132.033 7.82559 132.474 7.67679 132.94 7.58079C133.406 7.48479 133.869 7.43679 134.33 7.43679C135.184 7.43679 135.942 7.56399 136.605 7.81839C137.267 8.07279 137.822 8.44239 138.268 8.92719C138.714 9.41199 139.053 10.0072 139.283 10.7128C139.514 11.4184 139.629 12.2176 139.629 13.1104V22.6H135.165V13.1104C135.165 11.5648 134.502 10.792 133.178 10.792C132.573 10.792 132.071 10.9912 131.673 11.3896C131.274 11.788 131.075 12.3616 131.075 13.1104V22.6H126.611V13.1104C126.611 12.256 126.443 11.656 126.107 11.3104C125.771 10.9648 125.277 10.792 124.624 10.792C124.221 10.792 123.839 10.8832 123.479 11.0656C123.119 11.248 122.781 11.4928 122.464 11.8Z" fill="#D8D8D8"/>
</svg>
