<svg width="151" height="29" viewBox="0 0 151 29" fill="none" xmlns="http://www.w3.org/2000/svg">
<path fill-rule="evenodd" clip-rule="evenodd" d="M74.1712 0.544067V4.63367H69.4768V0.544067H74.1712ZM14.296 18.3425V22.0001H0.644806V1.49447H5.13761V18.3425H14.296ZM27.6016 21.3089C26.4496 21.9233 25.1056 22.2305 23.5696 22.2305C21.9952 22.2305 20.632 21.9233 19.48 21.3089C18.328 20.6945 17.44 19.8161 16.816 18.6737C16.192 17.5313 15.88 16.1825 15.88 14.6273C15.88 13.0721 16.192 11.7281 16.816 10.5953C17.44 9.46247 18.328 8.58407 19.48 7.96007C20.632 7.33607 21.9952 7.02407 23.5696 7.02407C25.1056 7.02407 26.4496 7.33607 27.6016 7.96007C28.7536 8.58407 29.6416 9.46247 30.2656 10.5953C30.8896 11.7281 31.2016 13.0721 31.2016 14.6273C31.2016 16.1825 30.8896 17.5313 30.2656 18.6737C29.6416 19.8161 28.7536 20.6945 27.6016 21.3089ZM23.5696 18.9185C22.4752 18.9185 21.64 18.5681 21.064 17.8673C20.488 17.1665 20.2 16.0865 20.2 14.6273C20.2 13.1873 20.4928 12.1169 21.0784 11.4161C21.664 10.7153 22.4944 10.3649 23.5696 10.3649C24.6256 10.3649 25.4416 10.7153 26.0176 11.4161C26.5936 12.1169 26.8816 13.1873 26.8816 14.6273C26.8816 16.0865 26.5936 17.1665 26.0176 17.8673C25.4416 18.5681 24.6256 18.9185 23.5696 18.9185ZM46.768 26.6369C45.4336 27.8465 43.4704 28.4513 40.8784 28.4513C38.5744 28.4513 36.5584 28.0001 34.8304 27.0977L35.4928 23.8721C36.3568 24.3137 37.2304 24.6401 38.1136 24.8513C38.9968 25.0625 39.8704 25.1681 40.7344 25.1681C41.9824 25.1681 42.9136 24.8801 43.528 24.3041L43.655 24.1759C44.1847 23.6003 44.4496 22.7598 44.4496 21.6545L44.449 19.1021L44.4302 19.133C44.2374 19.4261 44.0039 19.7098 43.7296 19.9841C43.2496 20.4641 42.6688 20.8529 41.9872 21.1505C41.3056 21.4481 40.5712 21.5969 39.784 21.5969C38.5168 21.5969 37.3936 21.2945 36.4144 20.6897C35.4352 20.0849 34.6672 19.2353 34.1104 18.1409C33.5536 17.0465 33.2752 15.7697 33.2752 14.3105C33.2752 12.8513 33.5536 11.5793 34.1104 10.4945C34.6672 9.40967 35.4352 8.56007 36.4144 7.94567C37.3936 7.33127 38.5168 7.02407 39.784 7.02407C40.9744 7.02407 42.0256 7.31687 42.9376 7.90247L43.1595 8.05277C43.663 8.41257 44.0669 8.83607 44.3712 9.32327L44.449 9.45707L44.4496 7.39847H48.7696V21.3089C48.7696 23.6513 48.1024 25.4273 46.768 26.6369ZM41.0512 18.2849C39.9952 18.2849 39.1552 17.9297 38.5312 17.2193C37.9072 16.5089 37.5952 15.5393 37.5952 14.3105C37.5952 13.0817 37.9024 12.1169 38.5168 11.4161C39.1312 10.7153 39.976 10.3649 41.0512 10.3649C42.1264 10.3649 42.9616 10.7201 43.5568 11.4305C44.152 12.1409 44.4496 13.1009 44.4496 14.3105C44.4496 15.5585 44.1472 16.5329 43.5424 17.2337C42.9376 17.9345 42.1072 18.2849 41.0512 18.2849ZM63.256 21.3089C62.104 21.9233 60.76 22.2305 59.224 22.2305C57.6496 22.2305 56.2864 21.9233 55.1344 21.3089C53.9824 20.6945 53.0944 19.8161 52.4704 18.6737C51.8464 17.5313 51.5344 16.1825 51.5344 14.6273C51.5344 13.0721 51.8464 11.7281 52.4704 10.5953C53.0944 9.46247 53.9824 8.58407 55.1344 7.96007C56.2864 7.33607 57.6496 7.02407 59.224 7.02407C60.76 7.02407 62.104 7.33607 63.256 7.96007C64.408 8.58407 65.296 9.46247 65.92 10.5953C66.544 11.7281 66.856 13.0721 66.856 14.6273C66.856 16.1825 66.544 17.5313 65.92 18.6737C65.296 19.8161 64.408 20.6945 63.256 21.3089ZM59.224 18.9185C58.1296 18.9185 57.2944 18.5681 56.7184 17.8673C56.1424 17.1665 55.8544 16.0865 55.8544 14.6273C55.8544 13.1873 56.1472 12.1169 56.7328 11.4161C57.3184 10.7153 58.1488 10.3649 59.224 10.3649C60.28 10.3649 61.096 10.7153 61.672 11.4161C62.248 12.1169 62.536 13.1873 62.536 14.6273C62.536 16.0865 62.248 17.1665 61.672 17.8673C61.096 18.5681 60.28 18.9185 59.224 18.9185ZM73.9984 22.0001V7.39847H69.6496V22.0001H73.9984ZM81.889 19.8801L81.8896 28.2209H77.5408V11.5745C77.5408 10.8833 77.5264 10.1873 77.4976 9.48647C77.4688 8.78567 77.4064 8.08967 77.3104 7.39847H81.4L81.676 9.86107L81.722 9.74807C82.0593 8.98807 82.6 8.36807 83.344 7.88807C84.2368 7.31207 85.2784 7.02407 86.4688 7.02407C87.736 7.02407 88.8544 7.34567 89.824 7.98887C90.7936 8.63207 91.5568 9.53447 92.1136 10.6961C92.6704 11.8577 92.9488 13.1969 92.9488 14.7137C92.9488 16.2305 92.6704 17.5553 92.1136 18.6881C91.5568 19.8209 90.7936 20.6945 89.824 21.3089C88.8544 21.9233 87.736 22.2305 86.4688 22.2305C85.2784 22.2305 84.2368 21.9521 83.344 21.3953L83.1269 21.2515C82.6346 20.9052 82.2419 20.4838 81.9488 19.9873L81.889 19.8801ZM85.2304 18.9185C84.136 18.9185 83.3008 18.5537 82.7248 17.8241C82.1488 17.0945 81.8608 16.0385 81.8608 14.6561C81.8608 13.2737 82.1488 12.2129 82.7248 11.4737C83.3008 10.7345 84.136 10.3649 85.2304 10.3649C86.2864 10.3649 87.1072 10.7489 87.6928 11.5169C88.2784 12.2849 88.5712 13.3505 88.5712 14.7137C88.5712 16.0769 88.2832 17.1185 87.7072 17.8385C87.1312 18.5585 86.3056 18.9185 85.2304 18.9185ZM105.923 21.0209C104.819 21.8273 103.298 22.2305 101.358 22.2305C98.5744 22.2305 96.376 21.6353 94.7632 20.4449L95.944 17.4209C96.712 17.9777 97.5712 18.4049 98.5216 18.7025C99.472 19.0001 100.427 19.1489 101.387 19.1489C102.136 19.1489 102.712 19.0289 103.115 18.7889C103.518 18.5489 103.72 18.2177 103.72 17.7953C103.72 17.4305 103.576 17.1473 103.288 16.9457C103 16.7441 102.491 16.5569 101.762 16.3841L99.3712 15.8081C97.9504 15.5201 96.9088 15.0401 96.2464 14.3681C95.584 13.6961 95.2528 12.8033 95.2528 11.6897C95.2528 10.7873 95.5168 9.98567 96.0448 9.28487C96.5728 8.58407 97.3072 8.03207 98.248 7.62887C99.1888 7.22567 100.283 7.02407 101.531 7.02407C102.587 7.02407 103.605 7.18247 104.584 7.49927C105.563 7.81607 106.456 8.26247 107.262 8.83847L106.053 11.7473C105.304 11.2289 104.541 10.8353 103.763 10.5665C102.986 10.2977 102.232 10.1633 101.502 10.1633C100.792 10.1633 100.235 10.2881 99.832 10.5377C99.4288 10.7873 99.2272 11.1329 99.2272 11.5745C99.2272 11.9009 99.3472 12.1601 99.5872 12.3521C99.8272 12.5441 100.254 12.7169 100.869 12.8705L103.317 13.4177C104.814 13.7633 105.899 14.2817 106.571 14.9729C107.243 15.6641 107.579 16.5857 107.579 17.7377C107.579 19.1201 107.027 20.2145 105.923 21.0209ZM115.614 22.2305C116.709 22.2305 117.664 21.9665 118.48 21.4385C119.073 21.0545 119.563 20.541 119.948 19.898L119.963 19.8711L119.963 22.0001H124.197V7.39847H119.819V15.4625C119.819 16.4801 119.541 17.2961 118.984 17.9105C118.427 18.5249 117.707 18.8321 116.824 18.8321C116.037 18.8321 115.456 18.6161 115.082 18.1841C114.707 17.7521 114.52 17.0849 114.52 16.1825V7.39847H110.171V16.0961C110.171 18.1505 110.622 19.6865 111.525 20.7041C112.427 21.7217 113.79 22.2305 115.614 22.2305ZM132.059 13.9649V22.0001H127.71V11.5745C127.71 10.8833 127.696 10.1873 127.667 9.48647C127.638 8.78567 127.576 8.08967 127.48 7.39847H131.57L131.815 9.61307L131.948 9.3815C132.327 8.75504 132.82 8.24283 133.427 7.84487C134.262 7.29767 135.266 7.02407 136.437 7.02407C137.762 7.02407 138.813 7.36487 139.59 8.04647L139.753 8.19789C140.123 8.56372 140.427 9.01715 140.665 9.55817L140.745 9.75507L140.841 9.59084C141.248 8.94089 141.786 8.3925 142.456 7.94567C143.378 7.33127 144.424 7.02407 145.595 7.02407C147.266 7.02407 148.504 7.53287 149.31 8.55047C150.117 9.56807 150.52 11.1041 150.52 13.1585V22.0001H146.171V13.3025C146.171 12.3041 146.008 11.5745 145.682 11.1137C145.355 10.6529 144.818 10.4225 144.069 10.4225C143.205 10.4225 142.523 10.7345 142.024 11.3585C141.525 11.9825 141.275 12.8513 141.275 13.9649V22.0001H136.926V13.3025C136.926 12.3041 136.763 11.5745 136.437 11.1137C136.11 10.6529 135.582 10.4225 134.853 10.4225C133.97 10.4225 133.283 10.7345 132.794 11.3585C132.304 11.9825 132.059 12.8513 132.059 13.9649Z" fill="#D8D8D8"/>
</svg>
